<?xml version="1.0" encoding="UTF-8" standalone="no"?><svg xmlns="http://www.w3.org/2000/svg" xmlns:xlink="http://www.w3.org/1999/xlink" contentStyleType="text/css" height="157px" preserveAspectRatio="none" style="width:621px;height:157px;background:#FFFFFF;" version="1.1" viewBox="0 0 621 157" width="621px" zoomAndPan="magnify"><defs/><g><!--MD5=[e3de345340cf3d06b45fc7dfccc3e3bc]
class cliente--><g id="elem_cliente"><rect codeLine="21" fill="#FFFFFF" height="143.3396" id="cliente" rx="2.5" ry="2.5" style="stroke:#2688D4;stroke-width:0.5;" width="275.3333" x="7" y="7"/><ellipse cx="117.9167" cy="23" fill="#FFFFFF" rx="11" ry="11" style="stroke:#2688D4;stroke-width:1.0;"/><path d="M116.526,30.25 L116.526,20.2344 L113.1823,20.2344 L113.1823,18.1094 L122.3542,18.1094 L122.3542,20.2344 L118.9948,20.2344 L118.9948,30.25 L116.526,30.25 Z " fill="#000000"/><text fill="#000000" font-family="sans-serif" font-size="14" lengthAdjust="spacing" textLength="45" x="138.4167" y="28.432">cliente</text><line style="stroke:#2688D4;stroke-width:0.5;" x1="8" x2="281.3333" y1="39" y2="39"/><path d="M20.4167,49.2346 C18.8067,49.2346 17.5,50.5413 17.5,52.1513 C17.5,52.3379 17.5,52.5246 17.535,52.6996 L14,56.2346 L14,58.5679 L17.5,58.5679 L17.5,56.2346 L19.8333,56.2346 L19.8333,55.0679 L19.8683,55.0329 C20.0433,55.0679 20.23,55.0679 20.4167,55.0679 C22.0267,55.0679 23.3333,53.7613 23.3333,52.1513 C23.3333,50.5413 22.0267,49.2346 20.4167,49.2346 M21,50.4013 C21.6417,50.4013 22.1667,50.9263 22.1667,51.5679 C22.1667,52.2096 21.6417,52.7346 21,52.7346 C20.3583,52.7346 19.8333,52.2096 19.8333,51.5679 C19.8333,50.9263 20.3583,50.4013 21,50.4013 " fill="#B8861B" style="stroke:;stroke-width:0.0;stroke-dasharray:;"/><text fill="#000000" font-family="sans-serif" font-size="14" font-weight="bold" lengthAdjust="spacing" textLength="13" x="28.3333" y="57.9659">id</text><text fill="#000000" font-family="sans-serif" font-size="14" lengthAdjust="spacing" textLength="47" x="41.3333" y="57.9659">: LONG</text><path d="M17.5,68.3025 C15.5633,68.3025 14,69.8658 14,71.8025 C14,73.7392 15.5633,75.3025 17.5,75.3025 C19.4367,75.3025 21,73.7392 21,71.8025 C21,69.8658 19.4367,68.3025 17.5,68.3025 " fill="#EFEFEF" style="stroke:;stroke-width:0.0;stroke-dasharray:;"/><text fill="#000000" font-family="sans-serif" font-size="14" lengthAdjust="spacing" textLength="214" x="28.3333" y="77.0339">nome: VARCHAR(100) NOT NULL</text><path d="M17.5,87.3704 C15.5633,87.3704 14,88.9338 14,90.8704 C14,92.8071 15.5633,94.3704 17.5,94.3704 C19.4367,94.3704 21,92.8071 21,90.8704 C21,88.9338 19.4367,87.3704 17.5,87.3704 " fill="#EFEFEF" style="stroke:;stroke-width:0.0;stroke-dasharray:;"/><text fill="#000000" font-family="sans-serif" font-size="14" lengthAdjust="spacing" textLength="248" x="28.3333" y="96.1018">cpf: VARCHAR(11) UNIQUE NOT NULL</text><path d="M17.5,106.4383 C15.5633,106.4383 14,108.0017 14,109.9383 C14,111.875 15.5633,113.4383 17.5,113.4383 C19.4367,113.4383 21,111.875 21,109.9383 C21,108.0017 19.4367,106.4383 17.5,106.4383 " fill="#EFEFEF" style="stroke:;stroke-width:0.0;stroke-dasharray:;"/><text fill="#000000" font-family="sans-serif" font-size="14" lengthAdjust="spacing" textLength="230" x="28.3333" y="115.1697">data_nascimento: DATE NOT NULL</text><path d="M17.5,125.5063 C15.5633,125.5063 14,127.0696 14,129.0063 C14,130.9429 15.5633,132.5063 17.5,132.5063 C19.4367,132.5063 21,130.9429 21,129.0063 C21,127.0696 19.4367,125.5063 17.5,125.5063 " fill="#EFEFEF" style="stroke:;stroke-width:0.0;stroke-dasharray:;"/><text fill="#000000" font-family="sans-serif" font-size="14" lengthAdjust="spacing" textLength="153" x="28.3333" y="134.2376">apelido: VARCHAR(100)</text><line style="stroke:#2688D4;stroke-width:1.0;" x1="8" x2="281.3333" y1="142.3396" y2="142.3396"/></g><!--MD5=[1d1250978db866eb147bfae9badde7e4]
class conta--><g id="elem_conta"><rect codeLine="30" fill="#FFFFFF" height="143.3396" id="conta" rx="2.5" ry="2.5" style="stroke:#2688D4;stroke-width:0.5;" width="272.3333" x="342" y="7"/><ellipse cx="455.4167" cy="23" fill="#FFFFFF" rx="11" ry="11" style="stroke:#2688D4;stroke-width:1.0;"/><path d="M454.026,30.25 L454.026,20.2344 L450.6823,20.2344 L450.6823,18.1094 L459.8542,18.1094 L459.8542,20.2344 L456.4948,20.2344 L456.4948,30.25 L454.026,30.25 Z " fill="#000000"/><text fill="#000000" font-family="sans-serif" font-size="14" lengthAdjust="spacing" textLength="37" x="475.9167" y="28.432">conta</text><line style="stroke:#2688D4;stroke-width:0.5;" x1="343" x2="613.3333" y1="39" y2="39"/><path d="M355.4167,49.2346 C353.8067,49.2346 352.5,50.5413 352.5,52.1513 C352.5,52.3379 352.5,52.5246 352.535,52.6996 L349,56.2346 L349,58.5679 L352.5,58.5679 L352.5,56.2346 L354.8333,56.2346 L354.8333,55.0679 L354.8683,55.0329 C355.0433,55.0679 355.23,55.0679 355.4167,55.0679 C357.0267,55.0679 358.3333,53.7613 358.3333,52.1513 C358.3333,50.5413 357.0267,49.2346 355.4167,49.2346 M356,50.4013 C356.6417,50.4013 357.1667,50.9263 357.1667,51.5679 C357.1667,52.2096 356.6417,52.7346 356,52.7346 C355.3583,52.7346 354.8333,52.2096 354.8333,51.5679 C354.8333,50.9263 355.3583,50.4013 356,50.4013 " fill="#B8861B" style="stroke:;stroke-width:0.0;stroke-dasharray:;"/><text fill="#000000" font-family="sans-serif" font-size="14" font-weight="bold" lengthAdjust="spacing" textLength="13" x="363.3333" y="57.9659">id</text><text fill="#000000" font-family="sans-serif" font-size="14" lengthAdjust="spacing" textLength="47" x="376.3333" y="57.9659">: LONG</text><path d="M352.5,68.3025 C350.5633,68.3025 349,69.8658 349,71.8025 C349,73.7392 350.5633,75.3025 352.5,75.3025 C354.4367,75.3025 356,73.7392 356,71.8025 C356,69.8658 354.4367,68.3025 352.5,68.3025 " fill="#EFEFEF" style="stroke:;stroke-width:0.0;stroke-dasharray:;"/><text fill="#000000" font-family="sans-serif" font-size="14" lengthAdjust="spacing" textLength="232" x="363.3333" y="77.0339">numero: LONG UNIQUE NOT NULL</text><path d="M352.5,87.3704 C350.5633,87.3704 349,88.9338 349,90.8704 C349,92.8071 350.5633,94.3704 352.5,94.3704 C354.4367,94.3704 356,92.8071 356,90.8704 C356,88.9338 354.4367,87.3704 352.5,87.3704 " fill="#EFEFEF" style="stroke:;stroke-width:0.0;stroke-dasharray:;"/><text fill="#000000" font-family="sans-serif" font-size="14" lengthAdjust="spacing" textLength="245" x="363.3333" y="96.1018">data_criacao: TIMESTAMP NOT NULL</text><path d="M352.5,106.4383 C350.5633,106.4383 349,108.0017 349,109.9383 C349,111.875 350.5633,113.4383 352.5,113.4383 C354.4367,113.4383 356,111.875 356,109.9383 C356,108.0017 354.4367,106.4383 352.5,106.4383 " fill="#EFEFEF" style="stroke:;stroke-width:0.0;stroke-dasharray:;"/><text fill="#000000" font-family="sans-serif" font-size="14" lengthAdjust="spacing" textLength="141" x="363.3333" y="115.1697">saldo: DECIMAL(16,2)</text><line style="stroke:#2688D4;stroke-width:1.0;" x1="343" x2="613.3333" y1="123.2717" y2="123.2717"/><path d="M355.4167,133.5063 C353.8067,133.5063 352.5,134.8129 352.5,136.4229 C352.5,136.6096 352.5,136.7963 352.535,136.9713 L349,140.5063 L349,142.8396 L352.5,142.8396 L352.5,140.5063 L354.8333,140.5063 L354.8333,139.3396 L354.8683,139.3046 C355.0433,139.3396 355.23,139.3396 355.4167,139.3396 C357.0267,139.3396 358.3333,138.0329 358.3333,136.4229 C358.3333,134.8129 357.0267,133.5063 355.4167,133.5063 M356,134.6729 C356.6417,134.6729 357.1667,135.1979 357.1667,135.8396 C357.1667,136.4813 356.6417,137.0063 356,137.0063 C355.3583,137.0063 354.8333,136.4813 354.8333,135.8396 C354.8333,135.1979 355.3583,134.6729 356,134.6729 " fill="#AAAAAA" style="stroke:;stroke-width:0.0;stroke-dasharray:;"/><text fill="#000000" font-family="sans-serif" font-size="14" lengthAdjust="spacing" textLength="107" x="363.3333" y="142.2376">cliente_id LONG</text></g><!--MD5=[edf85b029cd08f8c3f44da35c426cacc]
link cliente to conta--><g id="link_cliente_conta"><path codeLine="39" d="M290.07,78.5 C290.07,78.5 333.82,78.5 333.82,78.5 " fill="none" id="cliente-conta" style="stroke:#2688D4;stroke-width:1.0;stroke-dasharray:7.0,7.0;"/><line style="stroke:#2688D4;stroke-width:1.0;" x1="333.82" x2="341.82" y1="78.5" y2="72.5"/><line style="stroke:#2688D4;stroke-width:1.0;" x1="333.82" x2="341.82" y1="78.5" y2="84.5"/><line style="stroke:#2688D4;stroke-width:1.0;" x1="333.82" x2="341.82" y1="78.5" y2="78.5"/><line style="stroke:#2688D4;stroke-width:1.0;" x1="331.82" x2="331.82" y1="74.5" y2="82.5"/><line style="stroke:#2688D4;stroke-width:1.0;" x1="286.07" x2="286.07" y1="82.5" y2="74.5"/><line style="stroke:#2688D4;stroke-width:1.0;" x1="289.07" x2="289.07" y1="82.5" y2="74.5"/><line style="stroke:#2688D4;stroke-width:1.0;" x1="290.07" x2="282.07" y1="78.5" y2="78.5"/></g><!--MD5=[1ffeb6ff674642a4e9ebe56ce4841fc7]
@startuml
!theme vibrant

!define primary_key(x) <b><color:#b8861b><&key></color> x</b>
!define foreign_key(x) <color:#aaaaaa><&key></color> x
!define column(x) <color:#efefef><&media-record></color> x
!define table(x) entity x << (T, white) >>

left to right direction
skinparam roundcorner 5
skinparam linetype ortho
skinparam shadowing false
skinparam handwritten false
skinparam class {
    BackgroundColor white
    ArrowColor #2688d4
    BorderColor #2688d4
}

table( cliente ) {
  primary_key( id ): LONG 
  column( nome ): VARCHAR(100) NOT NULL 
  column( cpf ): VARCHAR(11) UNIQUE NOT NULL
  column( data_nascimento ): DATE NOT NULL
  column( apelido ): VARCHAR(100)
  - -
}

table( conta ) {
  primary_key( id ): LONG
  column( numero ): LONG UNIQUE NOT NULL 
  column( data_criacao ): TIMESTAMP NOT NULL
  column( saldo ): DECIMAL(16,2)
  - -
  foreign_key(cliente_id) LONG
}

cliente ||..|{ conta

@enduml

@startuml
skinparam BackgroundColor FFFFFF
skinparam shadowing false
skinparam RoundCorner 7
skinparam ArrowColor 454645
skinparam FontColor 454645
skinparam SequenceLifeLineBorderColor 696969
skinparam SequenceGroupHeaderFontColor 454645
skinparam SequenceGroupFontColor 696969
skinparam SequenceGroupBorderColor 696969
skinparam SequenceGroupBorderThickness 1

skinparam sequenceDivider {
    BorderColor 454645
    BorderThickness 1
    FontColor 454645
}

skinparam participant {
    BackgroundColor FF6347
    BorderColor 454645
    FontColor FFFFFF
    BorderThickness 1.5
}

skinparam database {
    BackgroundColor 00FFFF
    BorderColor 454645
    FontColor 454645
}

skinparam entity {
    BackgroundColor FFE552
    BorderColor 454645
    FontColor 454645
}

skinparam note {
    BackgroundColor 7FFFD4
    BorderColor 454645
    FontColor 454645
    BorderThickness 1.5
}

skinparam actor {
    BackgroundColor 454645
    BorderColor 454645
    FontColor 454645
}

skinparam boundary {
    BackgroundColor FFE552
    BorderColor 454645
    FontColor 454645
}

skinparam control {
    BackgroundColor FFE552
    BorderColor 454645
    FontColor 454645
}

skinparam collections {
    BackgroundColor FF5F42
    BorderColor 454645
    FontColor 454645
}

skinparam queue {
    BackgroundColor FF6347
    BorderColor 454645
    FontColor FFF
    BorderThickness 1.5
}


left to right direction
skinparam roundcorner 5
skinparam linetype ortho
skinparam shadowing false
skinparam handwritten false
skinparam class {
    BackgroundColor white
    ArrowColor #2688d4
    BorderColor #2688d4
}

entity cliente << (T, white) >> {
  <b><color:#b8861b><&key></color> id</b>: LONG 
  <color:#efefef><&media-record></color> nome: VARCHAR(100) NOT NULL 
  <color:#efefef><&media-record></color> cpf: VARCHAR(11) UNIQUE NOT NULL
  <color:#efefef><&media-record></color> data_nascimento: DATE NOT NULL
  <color:#efefef><&media-record></color> apelido: VARCHAR(100)
  - -
}

entity conta << (T, white) >> {
  <b><color:#b8861b><&key></color> id</b>: LONG
  <color:#efefef><&media-record></color> numero: LONG UNIQUE NOT NULL 
  <color:#efefef><&media-record></color> data_criacao: TIMESTAMP NOT NULL
  <color:#efefef><&media-record></color> saldo: DECIMAL(16,2)
  - -
  <color:#aaaaaa><&key></color> cliente_id LONG
}

cliente ||..|{ conta

@enduml

PlantUML version 1.2022.6(Tue Jun 21 14:34:49 BRT 2022)
(GPL source distribution)
Java Runtime: OpenJDK Runtime Environment
JVM: OpenJDK 64-Bit Server VM
Default Encoding: UTF-8
Language: en
Country: US
--></g></svg>